<?xml version="1.0" encoding="utf-8"?>
<!-- Generator: Adobe Illustrator 16.0.0, SVG Export Plug-In . SVG Version: 6.00 Build 0)  -->
<!DOCTYPE svg PUBLIC "-//W3C//DTD SVG 1.1//EN" "http://www.w3.org/Graphics/SVG/1.1/DTD/svg11.dtd">
<svg version="1.1" id="图层_1" xmlns="http://www.w3.org/2000/svg" xmlns:xlink="http://www.w3.org/1999/xlink" x="0px" y="0px"
	 width="321px" height="135px" viewBox="0 0 321 135" enable-background="new 0 0 321 135" xml:space="preserve">
<path display="none" fill="#666666" d="M195.979,41.832V35.74h-7.152v-2.769h7.152v-7.754h5.961v7.754h6.557v-3.877h5.961v16.615
	c0,3.509-2.785,6.278-8.346,8.308c-0.201-0.368-0.797-0.554-1.789-0.554h-0.297l-3.875,0.554v-0.831
	c6.156-0.921,8.941-3.414,8.346-7.477V35.74h-6.557v4.985c0,3.694-2.586,8.216-7.75,13.569c-0.996,1.107-1.787,1.938-2.385,2.492
	h-2.383C193.594,52.174,195.777,47.189,195.979,41.832 M202.535,83.369h-5.959V56.232h5.959v2.216h24.439v-2.216h5.961v17.723
	c-0.4,4.43-2.586,7.939-6.557,10.523c3.771,1.289,7.549,1.938,11.324,1.938c-1.592,2.217-2.188,4.799-1.787,7.754
	c-9.938-3.143-16.393-8.402-19.373-15.785c-2.584,4.803-9.043,10.061-19.373,15.785h-3.576
	c11.922-6.092,17.883-13.197,17.883-21.323v-8.861h6.557c-0.199,1.479-0.299,2.955-0.299,4.431c-0.199,3.694-0.4,6.464-0.596,8.308
	c1.588,2.588,4.271,4.984,8.047,7.199c1.193-2.029,1.789-3.877,1.789-5.539V61.217h-24.439V83.369z M224.59,54.017h-5.961V29.094
	h5.961v2.769h7.75v-2.769h5.961v24.923h-5.961v-2.769h-7.75V54.017z M224.59,48.478h7.75V34.632h-7.75V48.478z"/>
<path display="none" fill="#666666" d="M270.926,37.402h-13.711v-3.324h13.711v-7.476h5.961v7.476h9.537v-7.199h5.961v7.199h15.498
	v3.324h-15.498v4.43c3.576,1.847,6.357,3.509,8.346,4.985c-0.201,1.661-0.996,3.323-2.385,4.984h7.75v2.769h-19.672
	c-0.201,7.2,0.596,13.846,2.385,19.939c2.383-3.877,3.973-9.231,4.768-16.062l7.75,0.554c-2.188,9.415-5.564,15.969-10.135,19.661
	c3.178,4.063,6.656,6.646,10.434,7.754l1.49-14.677h1.191l0.299,15.509l2.086,0.275v7.199c-9.143-2.033-16.096-6.186-20.863-12.461
	c-3.182,2.035-8.346,4.889-15.498,8.584h-2.98c0.594-0.553,1.191-1.016,1.787-1.383c6.752-3.877,11.723-7.201,14.902-9.969
	c-2.98-6.275-4.373-14.583-4.172-24.924h-10.73v11.077c-0.199,11.263-4.172,20.583-11.922,27.968h-2.385
	c5.762-5.91,8.543-15.23,8.346-27.968V47.924h5.961v3.877h10.73v-9.415h6.557v-4.984h-9.537v5.538h-5.961V37.402z M286.424,42.386
	v9.415h10.729c-1.787-2.583-3.479-5.72-5.066-9.415H286.424z"/>
<polygon fill="#666666" points="190.236,115.002 188.824,115.002 188.824,103.01 190.236,103.01 190.236,108.006 195.211,108.006 
	195.211,103.01 196.623,103.01 196.623,115.002 195.211,115.002 195.211,109.193 190.236,109.193 "/>
<polygon fill="#666666" points="223.672,115.002 217.219,115.002 217.219,103.01 223.672,103.01 223.672,104.195 218.631,104.195 
	218.631,108.193 223.338,108.193 223.338,109.379 218.631,109.379 218.631,113.814 223.672,113.814 "/>
<path fill="#666666" d="M248.471,112.377l2.555-9.367h2.555v11.992h-1.48v-9.869v-0.438v-1.123
	c-0.133,0.541-0.268,1.082-0.402,1.623l-2.689,9.807h-1.68l-2.758-9.932c-0.045-0.125-0.111-0.334-0.201-0.625
	c-0.09-0.332-0.135-0.625-0.135-0.873h-0.066v0.873c0.043,0.334,0.066,0.563,0.066,0.688v9.869h-1.479V103.01h2.555l2.557,9.367
	c0.088,0.418,0.176,1,0.268,1.75c0-0.166,0.043-0.438,0.133-0.813C248.313,113.023,248.379,112.713,248.471,112.377"/>
<path fill="#666666" d="M271.285,115.002l3.697-11.992h1.883l3.629,11.992h-1.613l-1.008-3.436h-4.102l-0.941,3.436H271.285z
	 M277.537,110.379l-1.682-6.434l-1.68,6.434H277.537z"/>
<path fill="#666666" d="M299.344,108.785c-0.09-3.998,1.346-5.996,4.303-5.996c2.867,0,4.279,1.998,4.234,5.996
	c0.045,4.373-1.389,6.518-4.301,6.434C300.666,115.303,299.254,113.158,299.344,108.785 M306.402,108.785
	c0-3.205-0.939-4.809-2.822-4.809s-2.803,1.604-2.756,4.809c-0.18,3.748,0.738,5.518,2.756,5.309
	C305.551,114.344,306.492,112.576,306.402,108.785"/>
<rect x="206.283" y="102.881" fill="#666666" width="0.604" height="12.25"/>
<rect x="234.006" y="102.881" fill="#666666" width="0.604" height="12.25"/>
<rect x="261.727" y="102.881" fill="#666666" width="0.604" height="12.25"/>
<rect x="289.449" y="102.881" fill="#666666" width="0.604" height="12.25"/>
<path fill="#666666" d="M86.765,10.86c-41.9,0-76.012,34.093-76.012,76.011c0,9.76,1.857,19.104,5.231,27.707h4.738
	c-3.601-8.527-5.591-17.891-5.591-27.707c0-39.493,32.14-71.652,71.634-71.652c39.513,0,71.653,32.159,71.653,71.652
	c0,9.816-1.99,19.18-5.591,27.707h4.737c3.374-8.604,5.23-17.947,5.23-27.707C162.795,44.953,128.684,10.86,86.765,10.86"/>
<polygon display="none" fill="#666666" points="139.751,114.578 134.464,114.578 107.762,73.986 113.05,73.986 "/>
<polygon display="none" fill="#666666" points="65.919,73.984 39.217,114.578 33.93,114.578 60.631,73.984 "/>
<path fill="#666666" d="M105.663,62.749L86.839,34.126L68.016,62.749l-3.697,5.617h45.037L105.663,62.749z M72.36,64.107
	l14.479-22.016l14.479,22.016H72.36z"/>
<polygon fill="#666666" points="129.177,114.578 123.965,114.578 114.66,100.422 59.229,100.422 49.925,114.578 44.713,114.578 
	71.396,73.986 76.626,73.986 62.925,94.813 110.965,94.813 97.264,73.986 102.495,73.986 "/>
<polygon fill="#666666" points="69.918,101.445 61.276,114.578 56.065,114.578 64.688,101.445 "/>
<polygon fill="#666666" points="118.281,114.578 113.069,114.578 104.427,101.445 109.658,101.445 "/>
<polygon fill="#666666" points="104.625,93.797 99.401,93.797 93.046,84.133 89.717,89.191 92.746,93.797 87.52,93.797 
	87.104,93.162 86.688,93.797 81.465,93.797 84.491,89.195 81.233,84.236 74.945,93.797 69.723,93.797 78.622,80.264 81.233,76.293 
	83.844,80.264 87.104,85.219 93.02,76.227 93.046,76.264 93.07,76.227 "/>
<polygon fill="#666666" points="93.19,104.029 87.353,114.281 86.955,114.965 86.614,114.281 81.345,104.029 "/>
<text transform="matrix(1 0 0 1 172.9453 85.0117)" fill="#666666" font-family="'AdobeKaitiStd-Regular-GBpc-EUC-H'" font-size="36">贺茂环境</text>
<rect id="_x3C_切片_x3E_" fill="none" width="321" height="135"/>
</svg>
